<svg width="354" height="234" viewBox="0 0 354 234" fill="none" xmlns="http://www.w3.org/2000/svg">
<path d="M231.03 101.757C230.622 103.903 230.133 106.026 229.562 108.127C229.5 108.371 229.431 108.612 229.362 108.856H221.426C220.751 108.856 220.103 109.125 219.625 109.603C219.147 110.081 218.878 110.729 218.877 111.405V134.029C218.637 134.476 218.393 134.921 218.149 135.365C216.889 137.66 215.577 139.928 214.237 142.168C192.383 178.571 161.903 209.034 125.487 230.867L127.643 226.002C126.853 225.947 126.059 225.892 125.269 225.838C108.061 224.661 90.7942 223.358 73.9903 219.49C56.4108 215.444 39.2137 208.426 25.4363 196.79C11.6551 185.15 1.55251 168.528 0.150336 150.545C-0.317216 144.364 0.307863 138.149 1.9969 132.186C5.22716 120.706 12.2853 110.378 22.4682 104.267C38.4635 94.6703 59.3281 96.626 76.1901 104.609C93.0486 112.589 106.771 125.798 120.17 138.778C106.642 115.58 87.8069 95.9193 65.2097 81.41C57.7219 76.6172 49.7753 72.3489 43.4092 66.1394C37.0467 59.9336 32.3522 51.233 33.4777 42.4159C34.7559 32.4152 42.9467 24.8254 51.1519 18.9728C54.4296 16.6347 57.813 14.4168 61.302 12.3773C71.146 6.60851 81.7951 2.25641 93.0413 0.64304C108.275 -1.54576 124.73 1.77568 136.409 11.7983C149.568 23.0919 154.965 41.3051 154.451 58.7281C162.558 46.9428 175.061 37.9218 189.181 37.5394C203.84 37.146 217.774 46.4075 225.116 59.1032C232.454 71.7953 233.772 87.3536 231.03 101.757Z" fill="#E6E6E6"/>
<path d="M138.286 150.703C146.872 149.947 154.803 149.063 163.123 146.709C171.187 144.427 178.947 140.607 184.688 134.369C190.863 127.66 194.196 118.947 196.548 110.274C197.859 105.438 198.936 100.535 199.953 95.6298C201.056 90.3078 202.036 84.9623 202.893 79.5932C204.599 68.906 205.817 58.1558 206.547 47.3426C206.635 46.0301 206.716 44.7171 206.79 43.4036C206.835 42.5933 205.575 42.5959 205.529 43.4036C204.93 54.0622 203.851 64.6794 202.294 75.2549C200.756 85.6453 198.79 95.9908 196.295 106.195C194.181 114.84 191.444 123.619 186.022 130.815C180.938 137.563 173.595 141.973 165.667 144.61C157.599 147.293 149.092 148.364 140.661 149.161C139.627 149.258 139.321 149.351 138.286 149.443C137.485 149.513 137.477 150.774 138.286 150.703L138.286 150.703Z" fill="white"/>
<path d="M2.72496 133.115C13.5574 133.716 24.2796 135.605 34.6649 138.743C45.0547 141.875 55.0389 146.221 64.4108 151.691C73.4664 156.981 81.8731 163.31 89.46 170.551C96.8231 177.582 103.385 185.407 109.027 193.882C114.694 202.378 119.391 211.483 123.029 221.026C123.472 222.194 123.9 223.368 124.311 224.548C124.576 225.309 125.794 224.981 125.526 224.213C122.122 214.468 117.636 205.137 112.15 196.393C106.665 187.649 100.228 179.54 92.9566 172.214C85.5688 164.775 77.3467 158.213 68.4536 152.66C49.781 141.028 28.6158 133.992 6.69592 132.128C5.37367 132.017 4.05002 131.926 2.72498 131.855C1.91465 131.81 1.91714 133.071 2.72498 133.115L2.72496 133.115Z" fill="white"/>
<path d="M61.6411 13.8547C68.5672 16.0574 75.1322 19.2655 81.1259 23.3762C87.2505 27.6053 92.8363 32.5659 97.7593 38.1479C102.947 44.0201 107.56 50.3766 111.533 57.13C115.748 64.2607 119.409 71.7043 122.484 79.3951C125.651 87.291 128.315 95.3795 130.46 103.612C132.639 111.942 134.342 120.39 135.559 128.914C136.77 137.348 137.503 145.844 137.754 154.36C138.008 162.504 137.767 170.656 137.033 178.77C136.363 186.341 135.138 193.852 133.369 201.243C131.797 207.919 129.583 214.426 126.757 220.675C126.102 222.093 125.407 223.492 124.673 224.871C124.292 225.586 125.379 226.224 125.761 225.507C128.884 219.538 131.378 213.261 133.203 206.777C135.25 199.558 136.733 192.191 137.641 184.743C138.646 176.662 139.136 168.526 139.107 160.383C139.089 151.828 138.579 143.281 137.582 134.784C136.583 126.182 135.101 117.642 133.142 109.206C131.188 100.757 128.709 92.4371 125.72 84.2958C122.838 76.4146 119.389 68.7531 115.398 61.3716C111.597 54.3279 107.167 47.6419 102.162 41.3953C97.4099 35.4476 91.9841 30.0707 85.9936 25.3722C80.2172 20.8552 73.8341 17.1733 67.0319 14.4346C65.3696 13.773 63.6844 13.1746 61.9761 12.6396C61.2008 12.3956 60.869 13.6118 61.6411 13.8547H61.6411Z" fill="white"/>
<path d="M136.386 233.046C186.167 233.046 226.523 231.415 226.523 229.404C226.523 227.392 186.167 225.762 136.386 225.762C86.604 225.762 46.248 227.392 46.248 229.404C46.248 231.415 86.604 233.046 136.386 233.046Z" fill="#E6E6E6"/>
<path d="M216.024 115.334C215.979 115.53 215.95 115.73 215.937 115.931L200.292 124.957L196.489 122.768L192.436 128.075L200.571 133.873L218.419 119.792C219.147 120.062 219.94 120.103 220.692 119.911C221.444 119.719 222.119 119.302 222.629 118.717C223.138 118.131 223.458 117.404 223.544 116.633C223.631 115.862 223.48 115.082 223.113 114.398C222.746 113.715 222.179 113.159 221.488 112.805C220.797 112.451 220.015 112.316 219.245 112.418C218.476 112.519 217.755 112.853 217.18 113.374C216.605 113.895 216.201 114.578 216.024 115.334Z" fill="#FFB8B8"/>
<path d="M180.395 120.871L192.713 129.65L198.223 122.743L186.248 113.134C185.733 112.721 185.139 112.417 184.502 112.241C183.865 112.066 183.199 112.022 182.545 112.112C181.891 112.203 181.262 112.426 180.697 112.768C180.132 113.111 179.643 113.565 179.259 114.103C178.512 115.151 178.212 116.452 178.425 117.722C178.638 118.991 179.347 120.124 180.395 120.871Z" fill="#F1EEF9"/>
<path d="M154.966 221.05L159.286 222.182L165.706 206.061L159.332 204.391L154.966 221.05Z" fill="#FFB8B8"/>
<path d="M166.565 228.373L152.991 224.816L154.365 219.572L162.695 221.754C164.085 222.119 165.275 223.021 166.001 224.262C166.726 225.503 166.929 226.982 166.565 228.373Z" fill="#2F2E41"/>
<path d="M193.363 224.124L197.758 223.339L196.821 206.012L190.334 207.171L193.363 224.124Z" fill="#FFB8B8"/>
<path d="M206.961 225.906L193.147 228.374L192.194 223.037L200.671 221.522C201.372 221.397 202.09 221.411 202.786 221.564C203.481 221.716 204.14 222.004 204.724 222.412C205.308 222.819 205.806 223.337 206.19 223.936C206.574 224.536 206.836 225.205 206.961 225.906Z" fill="#2F2E41"/>
<path d="M184.706 96.6961C185.79 96.9597 186.671 98.0634 187.2 99.3419C187.688 100.685 188.018 102.08 188.185 103.499C188.6 106.142 189 109.003 188.14 111.451C187.132 114.32 184.446 115.822 182.116 115.116C179.787 114.41 177.934 111.759 177.301 108.708C176.725 105.626 177.096 102.44 178.366 99.5728C179.028 98.0661 179.94 96.6761 181.152 95.9963C181.747 95.6368 182.455 95.5157 183.136 95.6574C183.816 95.7992 184.417 96.1933 184.819 96.7604" fill="#2F2E41"/>
<path d="M190.833 144.547L199.201 219.496L192.29 222.12L179.543 171.861L161.796 217.814L154.231 218.235C154.231 218.235 164.611 146.732 172.303 145.107L190.833 144.547Z" fill="#2F2E41"/>
<path d="M183.806 106.261C188.746 106.261 192.751 102.256 192.751 97.316C192.751 92.3759 188.746 88.3711 183.806 88.3711C178.866 88.3711 174.861 92.3759 174.861 97.316C174.861 102.256 178.866 106.261 183.806 106.261Z" fill="#FFB8B8"/>
<path d="M187.644 110.013L177.978 108.752C177.978 108.752 171.674 116.317 172.094 129.345C172.514 142.374 171.043 146.366 171.043 146.366L191.198 146.731C188.284 142.725 200.471 119.716 187.644 110.013Z" fill="#F1EEF9"/>
<path d="M192.839 148.553C192.638 148.554 192.437 148.571 192.238 148.605L179.872 135.44L181.132 131.238L175.038 128.506L171.256 137.752L189.047 151.904C188.952 152.674 189.093 153.456 189.452 154.144C189.811 154.832 190.371 155.394 191.058 155.756C191.744 156.118 192.525 156.263 193.296 156.17C194.066 156.078 194.791 155.753 195.372 155.239C195.954 154.725 196.365 154.046 196.551 153.293C196.738 152.539 196.69 151.747 196.415 151.021C196.14 150.295 195.651 149.67 195.012 149.229C194.373 148.788 193.615 148.552 192.839 148.553Z" fill="#FFB8B8"/>
<path d="M179.294 115.136L173.566 129.137L181.552 132.92L188.165 119.064C188.449 118.468 188.609 117.82 188.634 117.16C188.66 116.5 188.55 115.841 188.312 115.225C188.074 114.609 187.713 114.048 187.25 113.576C186.788 113.105 186.234 112.732 185.623 112.482C185.033 112.241 184.401 112.118 183.764 112.121C183.127 112.124 182.496 112.252 181.909 112.499C181.321 112.745 180.788 113.105 180.339 113.557C179.89 114.01 179.535 114.547 179.294 115.136Z" fill="#F1EEF9"/>
<path d="M181.466 105.448C182.867 104.64 183.017 102.689 182.826 101.082C182.636 99.4756 182.318 97.6843 183.262 96.3705C184.389 94.8024 186.654 94.7712 188.585 94.72C190.515 94.6689 192.866 94.1036 193.366 92.2383C193.697 91.0058 192.99 89.6832 191.975 88.9095C190.96 88.1359 189.691 87.7938 188.457 87.4688C185.696 86.7416 182.846 86.0083 180.02 86.4079C177.22 86.8038 174.689 88.286 172.974 90.5338C171.259 92.7817 170.498 95.6144 170.856 98.419C171.313 102.007 171.977 103.573 171.541 105.155C170.73 108.102 167.232 109.994 167.163 113.05C167.108 115.439 169.219 117.283 171.279 118.497C172.912 119.459 174.675 120.276 176.558 120.501C178.441 120.726 180.468 120.295 181.87 119.019C183.679 117.373 184.126 114.624 183.608 112.234C183.089 109.844 181.758 107.722 180.442 105.66" fill="#2F2E41"/>
<mask id="path-19-inside-1_2280:1212" fill="white">
<path d="M350.714 108.127H221.426C220.557 108.128 219.724 108.474 219.11 109.088C218.495 109.703 218.15 110.536 218.148 111.405V194.441C218.15 195.309 218.495 196.142 219.11 196.757C219.724 197.371 220.557 197.717 221.426 197.718H350.714C351.583 197.717 352.416 197.371 353.031 196.757C353.645 196.142 353.991 195.309 353.992 194.441V111.405C353.991 110.536 353.645 109.703 353.031 109.088C352.416 108.474 351.583 108.128 350.714 108.127ZM353.264 194.441C353.263 195.116 352.994 195.764 352.516 196.242C352.038 196.72 351.39 196.989 350.714 196.99H221.426C220.75 196.989 220.102 196.72 219.624 196.242C219.146 195.764 218.878 195.116 218.877 194.441V111.405C218.878 110.729 219.146 110.081 219.624 109.603C220.102 109.125 220.75 108.856 221.426 108.855H350.714C351.39 108.856 352.038 109.125 352.516 109.603C352.994 110.081 353.263 110.729 353.264 111.405V194.441Z"/>
</mask>
<path d="M350.714 108.127H221.426C220.557 108.128 219.724 108.474 219.11 109.088C218.495 109.703 218.15 110.536 218.148 111.405V194.441C218.15 195.309 218.495 196.142 219.11 196.757C219.724 197.371 220.557 197.717 221.426 197.718H350.714C351.583 197.717 352.416 197.371 353.031 196.757C353.645 196.142 353.991 195.309 353.992 194.441V111.405C353.991 110.536 353.645 109.703 353.031 109.088C352.416 108.474 351.583 108.128 350.714 108.127ZM353.264 194.441C353.263 195.116 352.994 195.764 352.516 196.242C352.038 196.72 351.39 196.989 350.714 196.99H221.426C220.75 196.989 220.102 196.72 219.624 196.242C219.146 195.764 218.878 195.116 218.877 194.441V111.405C218.878 110.729 219.146 110.081 219.624 109.603C220.102 109.125 220.75 108.856 221.426 108.855H350.714C351.39 108.856 352.038 109.125 352.516 109.603C352.994 110.081 353.263 110.729 353.264 111.405V194.441Z" fill="#3F3D56"/>
<path d="M221.426 108.127V107.127L221.425 107.127L221.426 108.127ZM218.148 111.405L217.148 111.403V111.405H218.148ZM218.148 194.441H217.148L217.148 194.442L218.148 194.441ZM221.426 197.718L221.425 198.718H221.426V197.718ZM350.714 197.718V198.718H350.716L350.714 197.718ZM353.992 194.441L354.992 194.442V194.441H353.992ZM353.992 111.405H354.992V111.403L353.992 111.405ZM353.264 194.441L354.264 194.442V194.441H353.264ZM350.714 196.99V197.99H350.716L350.714 196.99ZM221.426 196.99L221.425 197.99H221.426V196.99ZM218.877 194.441H217.877L217.877 194.442L218.877 194.441ZM218.877 111.405L217.877 111.404V111.405H218.877ZM221.426 108.855V107.855L221.425 107.855L221.426 108.855ZM350.714 108.855L350.716 107.855H350.714V108.855ZM353.264 111.405H354.264V111.404L353.264 111.405ZM350.714 107.127H221.426V109.127H350.714V107.127ZM221.425 107.127C220.291 107.129 219.204 107.58 218.403 108.381L219.817 109.796C220.244 109.368 220.823 109.128 221.428 109.127L221.425 107.127ZM218.403 108.381C217.601 109.183 217.15 110.27 217.148 111.403L219.148 111.406C219.149 110.802 219.39 110.223 219.817 109.796L218.403 108.381ZM217.148 111.405V194.441H219.148V111.405H217.148ZM217.148 194.442C217.15 195.576 217.601 196.662 218.403 197.464L219.817 196.05C219.39 195.622 219.149 195.043 219.148 194.439L217.148 194.442ZM218.403 197.464C219.204 198.265 220.291 198.717 221.425 198.718L221.428 196.718C220.823 196.717 220.244 196.477 219.817 196.05L218.403 197.464ZM221.426 198.718H350.714V196.718H221.426V198.718ZM350.716 198.718C351.85 198.717 352.936 198.265 353.738 197.464L352.324 196.05C351.896 196.477 351.317 196.717 350.713 196.718L350.716 198.718ZM353.738 197.464C354.539 196.662 354.991 195.576 354.992 194.442L352.992 194.439C352.991 195.043 352.751 195.622 352.324 196.05L353.738 197.464ZM354.992 194.441V111.405H352.992V194.441H354.992ZM354.992 111.403C354.991 110.27 354.539 109.183 353.738 108.381L352.324 109.796C352.751 110.223 352.991 110.802 352.992 111.406L354.992 111.403ZM353.738 108.381C352.936 107.58 351.85 107.129 350.716 107.127L350.713 109.127C351.317 109.128 351.896 109.368 352.324 109.796L353.738 108.381ZM352.264 194.439C352.263 194.851 352.1 195.245 351.809 195.535L353.223 196.95C353.889 196.284 354.263 195.382 354.264 194.442L352.264 194.439ZM351.809 195.535C351.519 195.826 351.124 195.989 350.713 195.99L350.716 197.99C351.656 197.989 352.558 197.615 353.223 196.95L351.809 195.535ZM350.714 195.99H221.426V197.99H350.714V195.99ZM221.427 195.99C221.016 195.989 220.622 195.826 220.331 195.535L218.917 196.95C219.582 197.615 220.484 197.989 221.425 197.99L221.427 195.99ZM220.331 195.535C220.041 195.245 219.877 194.851 219.877 194.439L217.877 194.442C217.878 195.382 218.252 196.284 218.917 196.95L220.331 195.535ZM219.877 194.441V111.405H217.877V194.441H219.877ZM219.877 111.406C219.877 110.995 220.041 110.601 220.331 110.31L218.917 108.896C218.252 109.561 217.878 110.463 217.877 111.404L219.877 111.406ZM220.331 110.31C220.622 110.019 221.016 109.856 221.427 109.855L221.425 107.855C220.484 107.856 219.582 108.231 218.917 108.896L220.331 110.31ZM221.426 109.855H350.714V107.855H221.426V109.855ZM350.713 109.855C351.124 109.856 351.519 110.019 351.809 110.31L353.223 108.896C352.558 108.231 351.656 107.856 350.716 107.855L350.713 109.855ZM351.809 110.31C352.1 110.601 352.263 110.995 352.264 111.406L354.264 111.404C354.263 110.463 353.889 109.561 353.223 108.896L351.809 110.31ZM352.264 111.405V194.441H354.264V111.405H352.264Z" fill="white" mask="url(#path-19-inside-1_2280:1212)"/>
<path d="M249.025 149.461H228.63C227.809 149.46 227.022 149.134 226.442 148.553C225.862 147.973 225.535 147.186 225.534 146.365V125.971C225.535 125.15 225.862 124.363 226.442 123.783C227.022 123.202 227.809 122.876 228.63 122.875H249.025C249.845 122.876 250.632 123.202 251.212 123.783C251.793 124.363 252.119 125.15 252.12 125.971V146.365C252.119 147.186 251.793 147.973 251.212 148.553C250.632 149.134 249.845 149.46 249.025 149.461Z" fill="#F1EEF9"/>
<path d="M343.981 171.135H228.168C227.54 171.135 226.938 170.885 226.494 170.442C226.05 169.998 225.801 169.395 225.801 168.768C225.801 168.14 226.05 167.538 226.494 167.094C226.938 166.65 227.54 166.4 228.168 166.4H343.981C344.609 166.4 345.211 166.65 345.655 167.094C346.099 167.538 346.349 168.14 346.349 168.768C346.349 169.395 346.099 169.998 345.655 170.442C345.211 170.885 344.609 171.135 343.981 171.135Z" fill="#CCCCCC"/>
<path d="M344.059 159.662H228.246C227.618 159.662 227.016 159.413 226.572 158.969C226.128 158.525 225.878 157.923 225.878 157.295C225.878 156.667 226.128 156.065 226.572 155.621C227.016 155.177 227.618 154.928 228.246 154.928H344.059C344.687 154.928 345.289 155.177 345.733 155.621C346.177 156.065 346.426 156.667 346.426 157.295C346.426 157.923 346.177 158.525 345.733 158.969C345.289 159.413 344.687 159.662 344.059 159.662Z" fill="#CCCCCC"/>
<path d="M286.882 143.998H269.765C269.137 143.998 268.535 143.749 268.091 143.305C267.647 142.861 267.398 142.259 267.398 141.631C267.398 141.003 267.647 140.401 268.091 139.957C268.535 139.513 269.137 139.264 269.765 139.264H286.882C287.51 139.264 288.112 139.513 288.556 139.957C289 140.401 289.249 141.003 289.249 141.631C289.249 142.259 289 142.861 288.556 143.305C288.112 143.749 287.51 143.998 286.882 143.998Z" fill="#CCCCCC"/>
<path d="M344.06 132.348H269.765C269.137 132.348 268.535 132.098 268.091 131.654C267.647 131.21 267.398 130.608 267.398 129.981C267.398 129.353 267.647 128.751 268.091 128.307C268.535 127.863 269.137 127.613 269.765 127.613H344.06C344.688 127.613 345.29 127.863 345.734 128.307C346.178 128.751 346.428 129.353 346.428 129.981C346.428 130.608 346.178 131.21 345.734 131.654C345.29 132.098 344.688 132.348 344.06 132.348Z" fill="#CCCCCC"/>
<path d="M283.967 182.787H228.168C227.54 182.787 226.938 182.538 226.494 182.094C226.05 181.65 225.801 181.048 225.801 180.42C225.801 179.792 226.05 179.19 226.494 178.746C226.938 178.302 227.54 178.053 228.168 178.053H283.967C284.595 178.053 285.197 178.302 285.641 178.746C286.085 179.19 286.334 179.792 286.334 180.42C286.334 181.048 286.085 181.65 285.641 182.094C285.197 182.538 284.595 182.787 283.967 182.787Z" fill="#CCCCCC"/>
</svg>
