<svg width="24" height="24" viewBox="0 0 24 24" fill="none" xmlns="http://www.w3.org/2000/svg">
<path d="M23.5703 8.81771C23.5905 8.88327 23.6081 8.94883 23.6233 9.01691C24.4122 12.0909 23.9513 15.3523 22.3413 18.0873C20.7314 20.8223 18.1036 22.8082 15.033 23.6104C11.9624 24.4125 8.69902 23.9656 5.95713 22.3674C3.21524 20.7692 1.21809 18.15 0.402776 15.0828C-0.412541 12.0157 0.0203663 8.75043 1.60675 6.0017C3.19314 3.25297 5.8038 1.2446 8.86742 0.416122C11.931 -0.412359 15.1981 0.00651583 17.9536 1.58108C20.7091 3.15565 22.7287 5.75767 23.5703 8.81771V8.81771Z" fill="#FEC92D"/>
<path d="M23.9472 9.10735C23.9673 9.17509 23.9849 9.24284 24 9.31319L0.00854073 13C-0.0544489 11.261 0.231527 9.52739 0.848396 7.90881L20.2105 3C22.0061 4.61296 23.3053 6.7365 23.9472 9.10735Z" fill="#F05257"/>
<path d="M23.9894 12C24.0285 12.9156 23.959 13.8326 23.7823 14.7319L5.19008 22C3.90032 21.0614 2.81507 19.8718 2 18.5032L23.9894 12Z" fill="#F05257"/>
<path d="M6.73182 15.0015C6.92966 15.3438 7.0215 15.737 6.99576 16.1314C6.97001 16.5258 6.8278 16.9038 6.58715 17.2174C6.34649 17.5311 6.01816 17.7664 5.64369 17.8936C5.26922 18.0209 4.86544 18.0343 4.48335 17.9322C4.10125 17.83 3.75802 17.617 3.49707 17.32C3.23612 17.023 3.06916 16.6553 3.01728 16.2635C2.96541 15.8716 3.03092 15.4732 3.2056 15.1186C3.38028 14.7639 3.65626 14.469 3.99863 14.2711C4.22583 14.1387 4.47699 14.0526 4.73765 14.0177C4.99832 13.9827 5.26333 13.9997 5.5174 14.0676C5.77147 14.1355 6.00956 14.253 6.21799 14.4133C6.42642 14.5735 6.60106 14.7735 6.73182 15.0015Z" fill="#C33749"/>
<path d="M6.73124 14.9986C6.92935 15.3411 7.02141 15.7346 6.99581 16.1294C6.9702 16.5243 6.82808 16.9026 6.58739 17.2166C6.34671 17.5307 6.01828 17.7662 5.64368 17.8936C5.26908 18.0209 4.86514 18.0343 4.48293 17.932C4.10073 17.8297 3.75746 17.6164 3.49654 17.3189C3.23562 17.0215 3.06878 16.6534 3.01712 16.2611C2.96547 15.8689 3.0313 15.4701 3.20632 15.1153C3.38134 14.7604 3.65769 14.4655 4.00037 14.2677C4.45949 14.0028 5.005 13.931 5.51705 14.068C6.02911 14.205 6.46583 14.5398 6.73124 14.9986Z" fill="#D83C4E"/>
</svg>
