<svg width="25" height="24" viewBox="0 0 25 24" fill="none" xmlns="http://www.w3.org/2000/svg">
<path d="M12.875 2.16215C16.0791 2.16215 16.4587 2.17439 17.724 2.23212C18.894 2.28547 19.5294 2.48096 19.9523 2.6453C20.5124 2.86299 20.9121 3.12302 21.332 3.54291C21.752 3.96286 22.012 4.3626 22.2297 4.92273C22.394 5.34557 22.5895 5.98096 22.6429 7.15095C22.7006 8.41629 22.7128 8.79584 22.7128 11.9999C22.7128 15.2041 22.7006 15.5836 22.6429 16.849C22.5895 18.019 22.394 18.6543 22.2297 19.0772C22.012 19.6373 21.752 20.0371 21.3321 20.457C20.9121 20.8769 20.5124 21.1369 19.9523 21.3546C19.5294 21.519 18.894 21.7144 17.724 21.7678C16.4589 21.8255 16.0794 21.8378 12.875 21.8378C9.67063 21.8378 9.29118 21.8255 8.02597 21.7678C6.85598 21.7144 6.22059 21.519 5.79774 21.3546C5.23761 21.1369 4.83787 20.8769 4.41797 20.457C3.99808 20.0371 3.738 19.6373 3.52031 19.0772C3.35597 18.6543 3.16048 18.019 3.10713 16.849C3.0494 15.5836 3.03716 15.2041 3.03716 11.9999C3.03716 8.79584 3.0494 8.41629 3.10713 7.15095C3.16048 5.98096 3.35597 5.34557 3.52031 4.92273C3.738 4.3626 3.99803 3.96286 4.41797 3.54296C4.83787 3.12302 5.23761 2.86299 5.79774 2.6453C6.22059 2.48096 6.85598 2.28547 8.02597 2.23212C9.29132 2.17439 9.67087 2.16215 12.875 2.16215ZM12.875 0C9.616 0 9.20734 0.0138138 7.92741 0.072213C6.65016 0.130469 5.77783 0.333342 5.01454 0.629958C4.22544 0.936626 3.55623 1.34694 2.88906 2.01406C2.22195 2.68122 1.81163 3.35043 1.50501 4.13953C1.20834 4.90282 1.00547 5.77514 0.947213 7.05239C0.888814 8.33231 0.875 8.74096 0.875 11.9999C0.875 15.259 0.888814 15.6676 0.947213 16.9475C1.00547 18.2248 1.20834 19.0971 1.50501 19.8604C1.81163 20.6495 2.22195 21.3187 2.88906 21.9859C3.55623 22.653 4.22544 23.0633 5.01454 23.3699C5.77783 23.6666 6.65016 23.8694 7.92741 23.9277C9.20734 23.9861 9.616 23.9999 12.875 23.9999C16.134 23.9999 16.5427 23.9861 17.8226 23.9277C19.0998 23.8694 19.9722 23.6666 20.7355 23.3699C21.5246 23.0633 22.1938 22.653 22.8609 21.9859C23.528 21.3187 23.9384 20.6495 24.245 19.8604C24.5417 19.0971 24.7445 18.2248 24.8028 16.9475C24.8612 15.6676 24.875 15.259 24.875 11.9999C24.875 8.74096 24.8612 8.33231 24.8028 7.05239C24.7445 5.77514 24.5417 4.90282 24.245 4.13953C23.9384 3.35043 23.528 2.68122 22.8609 2.01406C22.1938 1.34694 21.5246 0.936626 20.7355 0.629958C19.9722 0.333342 19.0998 0.130469 17.8226 0.072213C16.5427 0.0138138 16.134 0 12.875 0Z" fill="url(#paint0_linear_4507_1084)"/>
<path d="M12.8809 5.84375C9.47762 5.84375 6.71875 8.60261 6.71875 12.0059C6.71875 15.4092 9.47762 18.168 12.8809 18.168C16.2842 18.168 19.0431 15.4092 19.0431 12.0059C19.0431 8.60261 16.2842 5.84375 12.8809 5.84375ZM12.8809 16.0059C10.6718 16.0059 8.88091 14.215 8.88091 12.0059C8.88091 9.79675 10.6718 8.0059 12.8809 8.0059C15.0901 8.0059 16.8809 9.79675 16.8809 12.0059C16.8809 14.215 15.0901 16.0059 12.8809 16.0059Z" fill="url(#paint1_linear_4507_1084)"/>
<path d="M20.7277 5.59627C20.7277 6.39152 20.0829 7.03625 19.2876 7.03625C18.4924 7.03625 17.8477 6.39152 17.8477 5.59627C17.8477 4.80098 18.4924 4.15625 19.2876 4.15625C20.0829 4.15625 20.7277 4.80098 20.7277 5.59627Z" fill="url(#paint2_linear_4507_1084)"/>
<defs>
<linearGradient id="paint0_linear_4507_1084" x1="-3.05777" y1="13.9636" x2="31.531" y2="14.0086" gradientUnits="userSpaceOnUse">
<stop stop-color="#A265F2"/>
<stop offset="0.0471675" stop-color="#985EFF"/>
<stop offset="0.938289" stop-color="#EA9A91"/>
<stop offset="1" stop-color="#E1939D" stop-opacity="0.77"/>
</linearGradient>
<linearGradient id="paint1_linear_4507_1084" x1="4.69922" y1="13.0142" x2="22.461" y2="13.0374" gradientUnits="userSpaceOnUse">
<stop stop-color="#A265F2"/>
<stop offset="0.0471675" stop-color="#985EFF"/>
<stop offset="0.938289" stop-color="#EA9A91"/>
<stop offset="1" stop-color="#E1939D" stop-opacity="0.77"/>
</linearGradient>
<linearGradient id="paint2_linear_4507_1084" x1="17.3757" y1="5.83189" x2="21.5264" y2="5.83729" gradientUnits="userSpaceOnUse">
<stop stop-color="#A265F2"/>
<stop offset="0.0471675" stop-color="#985EFF"/>
<stop offset="0.938289" stop-color="#EA9A91"/>
<stop offset="1" stop-color="#E1939D" stop-opacity="0.77"/>
</linearGradient>
</defs>
</svg>
