<svg width="23" height="22" viewBox="0 0 23 22" fill="none" xmlns="http://www.w3.org/2000/svg">
<path fill-rule="evenodd" clip-rule="evenodd" d="M5.64975 2.87373C5.64975 4.11882 4.70171 5.12645 3.21915 5.12645C1.79435 5.12645 0.846323 4.11882 0.875662 2.87373C0.846323 1.56813 1.79433 0.589844 3.24755 0.589844C4.70169 0.589844 5.62133 1.56813 5.64975 2.87373ZM0.994858 21.4089V6.90606H5.50212V21.408H0.994858V21.4089Z" fill="url(#paint0_linear_4507_1093)"/>
<path fill-rule="evenodd" clip-rule="evenodd" d="M9.11431 11.534C9.11431 9.72501 9.05471 8.18286 8.99512 6.90751H12.9101L13.1182 8.89435H13.2072C13.8004 7.97474 15.2829 6.58203 17.6851 6.58203C20.6502 6.58203 22.8745 8.53952 22.8745 12.8084V21.4103H18.3672V13.3732C18.3672 11.5037 17.7154 10.2293 16.0843 10.2293C14.8383 10.2293 14.0974 11.0893 13.8013 11.919C13.6821 12.2161 13.6234 12.6305 13.6234 13.0468V21.4103H9.11613V11.534H9.11431Z" fill="url(#paint1_linear_4507_1093)"/>
<defs>
<linearGradient id="paint0_linear_4507_1093" x1="0.0925832" y1="12.7028" x2="6.97395" y2="12.7048" gradientUnits="userSpaceOnUse">
<stop stop-color="#A265F2"/>
<stop offset="0.0471675" stop-color="#985EFF"/>
<stop offset="0.938289" stop-color="#EA9A91"/>
<stop offset="1" stop-color="#E1939D" stop-opacity="0.77"/>
</linearGradient>
<linearGradient id="paint1_linear_4507_1093" x1="6.72076" y1="15.2094" x2="26.7237" y2="15.2338" gradientUnits="userSpaceOnUse">
<stop stop-color="#A265F2"/>
<stop offset="0.0471675" stop-color="#985EFF"/>
<stop offset="0.938289" stop-color="#EA9A91"/>
<stop offset="1" stop-color="#E1939D" stop-opacity="0.77"/>
</linearGradient>
</defs>
</svg>
