<svg width="25" height="20" viewBox="0 0 25 20" fill="none" xmlns="http://www.w3.org/2000/svg">
<path fill-rule="evenodd" clip-rule="evenodd" d="M24.875 2.55474C23.9927 2.94671 23.0431 3.21069 22.0472 3.32988C23.0639 2.72033 23.8447 1.75559 24.2118 0.606067C23.2615 1.17083 22.2064 1.5796 21.0857 1.80119C20.1873 0.844454 18.9066 0.246094 17.4915 0.246094C14.7725 0.246094 12.5678 2.45075 12.5678 5.16976C12.5678 5.55534 12.6118 5.93131 12.6958 6.29209C8.60329 6.0873 4.97553 4.12663 2.54689 1.14763C2.12292 1.87478 1.88053 2.72034 1.88053 3.62267C1.88053 5.33056 2.74847 6.83766 4.07079 7.7208C3.26284 7.6952 2.50449 7.47362 1.83973 7.10484V7.16643C1.83973 9.55267 3.53802 11.5421 5.78907 11.9957C5.3763 12.1077 4.94113 12.1685 4.49236 12.1685C4.17478 12.1685 3.866 12.1373 3.56522 12.0797C4.19158 14.0356 6.01066 15.4595 8.16491 15.4995C6.48023 16.8194 4.35717 17.6073 2.05012 17.6073C1.65175 17.6073 1.25977 17.5841 0.875 17.5377C3.05405 18.9344 5.64188 19.7504 8.4225 19.7504C17.4787 19.7504 22.4312 12.2477 22.4312 5.74172C22.4312 5.52814 22.4272 5.31536 22.4168 5.10497C23.3799 4.40902 24.215 3.54188 24.875 2.55474Z" fill="url(#paint0_linear_4507_1091)"/>
<defs>
<linearGradient id="paint0_linear_4507_1091" x1="-3.05777" y1="11.5941" x2="31.5309" y2="11.6495" gradientUnits="userSpaceOnUse">
<stop stop-color="#A265F2"/>
<stop offset="0.0471675" stop-color="#985EFF"/>
<stop offset="0.938289" stop-color="#EA9A91"/>
<stop offset="1" stop-color="#E1939D" stop-opacity="0.77"/>
</linearGradient>
</defs>
</svg>
