<svg width="27" height="18" viewBox="0 0 27 18" fill="none" xmlns="http://www.w3.org/2000/svg">
<path fill-rule="evenodd" clip-rule="evenodd" d="M25.1755 1.37807C25.5746 1.77717 25.8622 2.27386 26.0096 2.81868C26.8585 6.23572 26.6623 11.6324 26.0261 15.1813C25.8787 15.7261 25.5911 16.2228 25.192 16.6219C24.7929 17.021 24.2962 17.3086 23.7514 17.456C21.7569 18 13.7294 18 13.7294 18C13.7294 18 5.70191 18 3.7074 17.456C3.16259 17.3086 2.66589 17.021 2.26679 16.6219C1.86769 16.2228 1.58011 15.7261 1.43268 15.1813C0.578833 11.7791 0.8129 6.37912 1.4162 2.83517C1.56362 2.29035 1.85121 1.79365 2.25031 1.39455C2.64941 0.99545 3.1461 0.707864 3.69092 0.560444C5.68543 0.0164795 13.7129 0 13.7129 0C13.7129 0 21.7404 0 23.7349 0.543954C24.2797 0.691384 24.7764 0.97897 25.1755 1.37807ZM17.8173 8.99999L11.158 12.8571V5.14285L17.8173 8.99999Z" fill="url(#paint0_linear_4507_1098)"/>
<defs>
<linearGradient id="paint0_linear_4507_1098" x1="-3.33664" y1="10.4727" x2="33.7047" y2="10.5416" gradientUnits="userSpaceOnUse">
<stop stop-color="#A265F2"/>
<stop offset="0.0471675" stop-color="#985EFF"/>
<stop offset="0.938289" stop-color="#EA9A91"/>
<stop offset="1" stop-color="#E1939D" stop-opacity="0.77"/>
</linearGradient>
</defs>
</svg>
